<?xml version="1.0" encoding="UTF-8"?>
<!DOCTYPE svg PUBLIC "-//W3C//DTD SVG 1.1//EN" "http://www.w3.org/Graphics/SVG/1.1/DTD/svg11.dtd">
<svg xmlns="http://www.w3.org/2000/svg" version="1.1" width="516px" height="494px" style="shape-rendering:geometricPrecision; text-rendering:geometricPrecision; image-rendering:optimizeQuality; fill-rule:evenodd; clip-rule:evenodd" xmlns:xlink="http://www.w3.org/1999/xlink">
<g><path style="opacity:0.983" fill="#0b82c9" d="M 351.5,27.5 C 351.5,28.1667 351.833,28.5 352.5,28.5C 320.806,33.4601 288.806,37.1268 256.5,39.5C 243.105,39.3409 229.772,40.1743 216.5,42C 215.672,42.9147 214.672,43.5814 213.5,44C 202.235,45.781 190.902,46.9476 179.5,47.5C 179.5,46.8333 179.5,46.1667 179.5,45.5C 179.169,37.8045 179.503,30.1378 180.5,22.5C 215.579,10.2919 251.579,6.45858 288.5,11C 310.219,13.8462 331.219,19.3462 351.5,27.5 Z"/></g>
<g><path style="opacity:0.782" fill="#fcfbfb" d="M 441.5,95.5 C 439.669,181.494 438.835,267.828 439,354.5C 433.198,376.304 419.698,391.137 398.5,399C 399.056,399.383 399.389,399.883 399.5,400.5C 395.288,403.092 390.622,404.925 385.5,406C 377.152,407.167 369.152,408.667 361.5,410.5C 361.5,410.833 361.5,411.167 361.5,411.5C 352.27,412.03 343.27,411.03 334.5,408.5C 333.596,407.791 333.263,406.791 333.5,405.5C 331.17,403.71 328.503,402.21 325.5,401C 323.613,400.22 321.946,400.387 320.5,401.5C 319.5,401.5 318.5,401.5 317.5,401.5C 297.496,391.667 284.663,376 279,354.5C 275.645,336.246 279.645,319.912 291,305.5C 318.48,276.169 351.647,267.169 390.5,278.5C 391.5,234.505 391.833,190.505 391.5,146.5C 324.203,154.386 256.87,162.053 189.5,169.5C 189.667,240.834 189.5,312.167 189,383.5C 188.331,387.671 187.164,391.671 185.5,395.5C 184.5,395.5 183.5,395.5 182.5,395.5C 180.178,396.802 178.845,398.802 178.5,401.5C 177.761,401.369 177.094,401.536 176.5,402C 170.845,409.988 164.178,416.988 156.5,423C 151.475,426.676 146.142,429.509 140.5,431.5C 135.252,433.024 129.919,434.357 124.5,435.5C 123.287,435.747 122.62,436.414 122.5,437.5C 108.496,437.667 94.496,437.5 80.5,437C 61.849,432.013 46.6823,421.846 35,406.5C 32.4123,402.326 30.079,397.993 28,393.5C 27.3333,378.833 27.3333,364.167 28,349.5C 30.4821,342.542 34.3155,336.542 39.5,331.5C 39.5,332.167 39.8333,332.5 40.5,332.5C 41.7211,333.465 43.0544,333.298 44.5,332C 48.2005,328.16 51.8671,324.327 55.5,320.5C 63.9398,316.626 72.2731,312.459 80.5,308C 87.3597,307.136 94.0264,305.969 100.5,304.5C 100.5,303.833 100.5,303.167 100.5,302.5C 113.085,301.744 125.419,303.078 137.5,306.5C 137.5,269.833 137.5,233.167 137.5,196.5C 137.833,196.5 138.167,196.5 138.5,196.5C 138.5,197.167 138.833,197.5 139.5,197.5C 139.56,198.043 139.893,198.376 140.5,198.5C 141.5,155.505 141.833,112.505 141.5,69.5C 141.843,67.5168 141.176,66.1834 139.5,65.5C 139.167,65.5 138.833,65.5 138.5,65.5C 141.28,58.2194 146.28,53.0527 153.5,50C 162.234,48.6799 170.901,47.1799 179.5,45.5C 179.5,46.1667 179.5,46.8333 179.5,47.5C 184.64,48.4881 189.974,48.8214 195.5,48.5C 204.203,48.6449 212.87,48.1449 221.5,47C 222.308,46.6924 222.975,46.1924 223.5,45.5C 231.742,44.802 239.742,43.4686 247.5,41.5C 248.167,41.5 248.833,41.5 249.5,41.5C 283.324,39.6364 316.991,36.1364 350.5,31C 351.833,30.6667 353.167,30.3333 354.5,30C 353.956,29.2828 353.289,28.7828 352.5,28.5C 351.833,28.5 351.5,28.1667 351.5,27.5C 360.952,25.7728 370.618,24.6061 380.5,24C 398.258,23.028 415.924,23.3613 433.5,25C 436.372,27.5366 438.872,30.3699 441,33.5C 441.5,54.164 441.667,74.8306 441.5,95.5 Z"/></g>
<g><path style="opacity:1" fill="#c1c1c1" d="M 428.5,36.5 C 426.833,35.8333 425.167,35.1667 423.5,34.5C 417.198,33.4035 410.864,33.4035 404.5,34.5C 396.132,34.9368 387.799,35.7701 379.5,37C 378.584,37.2784 377.918,37.7784 377.5,38.5C 372.463,38.4126 367.463,38.746 362.5,39.5C 359.833,39.5 357.167,39.5 354.5,39.5C 368.704,37.4291 383.038,35.2624 397.5,33C 407.167,32.3333 416.833,32.3333 426.5,33C 427.305,34.1127 427.972,35.2794 428.5,36.5 Z"/></g>
<g><path style="opacity:1" fill="#515151" d="M 423.5,34.5 C 423.833,35.1667 424.167,35.8333 424.5,36.5C 417.192,35.2967 409.859,35.2967 402.5,36.5C 403.167,35.8333 403.833,35.1667 404.5,34.5C 410.864,33.4035 417.198,33.4035 423.5,34.5 Z"/></g>
<g><path style="opacity:1" fill="#828282" d="M 404.5,34.5 C 403.833,35.1667 403.167,35.8333 402.5,36.5C 395.023,36.1528 387.69,36.8194 380.5,38.5C 379.5,38.5 378.5,38.5 377.5,38.5C 377.918,37.7784 378.584,37.2784 379.5,37C 387.799,35.7701 396.132,34.9368 404.5,34.5 Z"/></g>
<g><path style="opacity:1" fill="#010101" d="M 424.5,36.5 C 424.842,37.3382 425.508,37.6716 426.5,37.5C 427.511,39.3716 428.345,41.3716 429,43.5C 429.82,146.515 429.653,249.515 428.5,352.5C 428.244,355.598 427.578,358.598 426.5,361.5C 426.5,361.833 426.5,362.167 426.5,362.5C 424.108,365.598 421.942,368.931 420,372.5C 417.494,374.867 414.994,377.201 412.5,379.5C 402.472,386.216 391.805,391.549 380.5,395.5C 369.514,396.453 358.514,396.619 347.5,396C 342.993,395.575 338.659,394.742 334.5,393.5C 333.167,393.5 331.833,393.5 330.5,393.5C 329.167,392.5 327.833,391.5 326.5,390.5C 323.876,389.17 321.542,387.337 319.5,385C 318.207,384.51 316.873,384.343 315.5,384.5C 307.7,377.536 301.2,369.536 296,360.5C 293.804,351.981 292.971,343.315 293.5,334.5C 293.756,331.402 294.422,328.402 295.5,325.5C 297.823,321.577 300.156,317.577 302.5,313.5C 308.228,307.767 314.228,302.433 320.5,297.5C 322.315,296.37 324.315,295.704 326.5,295.5C 351.347,285.459 375.681,286.459 399.5,298.5C 399.97,299.693 400.97,300.36 402.5,300.5C 403.994,300.291 405.161,299.624 406,298.5C 406.832,243.332 406.665,188.332 405.5,133.5C 405.423,132.25 404.756,131.417 403.5,131C 386.148,132.123 368.815,133.79 351.5,136C 350.584,136.278 349.918,136.778 349.5,137.5C 346.833,137.5 344.167,137.5 341.5,137.5C 327.2,138.199 313.2,139.866 299.5,142.5C 288.562,142.75 277.895,144.084 267.5,146.5C 265.833,146.5 264.167,146.5 262.5,146.5C 233.458,148.484 204.625,151.817 176,156.5C 175.667,229.5 175.333,302.5 175,375.5C 174.37,382.322 172.37,388.655 169,394.5C 165.512,399.319 161.679,403.819 157.5,408C 152.982,410.704 148.982,413.871 145.5,417.5C 144.833,417.5 144.167,417.5 143.5,417.5C 133.84,420.515 124.174,423.182 114.5,425.5C 103.319,426.112 92.3195,425.112 81.5,422.5C 78.3856,421.044 75.0523,419.878 71.5,419C 69.5681,416.858 67.2347,415.358 64.5,414.5C 60.2129,410.55 55.8795,406.55 51.5,402.5C 42.1199,391.999 37.7865,379.666 38.5,365.5C 39.8013,362.209 40.8013,358.709 41.5,355C 43.3061,351.57 45.4727,348.403 48,345.5C 48.3333,344.167 48.6667,342.833 49,341.5C 53.0621,337.269 57.2288,333.269 61.5,329.5C 63.5168,328.471 65.5168,327.471 67.5,326.5C 72.5947,323.956 77.928,321.956 83.5,320.5C 91.3006,319.176 99.1339,318.176 107,317.5C 115.286,317.708 123.453,318.708 131.5,320.5C 132.429,321.315 133.429,322.148 134.5,323C 138.497,323.502 142.164,324.835 145.5,327C 147.387,327.78 149.054,327.613 150.5,326.5C 151.172,240.627 151.839,154.627 152.5,68.5C 155.371,66.4636 158.371,64.6303 161.5,63C 172.268,61.3544 182.934,60.1877 193.5,59.5C 210.742,58.3854 227.742,56.3854 244.5,53.5C 249.338,53.0886 254.005,52.4219 258.5,51.5C 267.389,51.8033 276.056,51.1367 284.5,49.5C 288.064,48.5773 291.731,48.244 295.5,48.5C 302.868,48.5359 310.201,48.0359 317.5,47C 330.197,45.0558 342.863,43.2225 355.5,41.5C 364.074,41.3746 372.408,40.3746 380.5,38.5C 387.69,36.8194 395.023,36.1528 402.5,36.5C 409.859,35.2967 417.192,35.2967 424.5,36.5 Z"/></g>
<g><path style="opacity:1" fill="#c6d5ea" d="M 352.5,28.5 C 353.289,28.7828 353.956,29.2828 354.5,30C 353.167,30.3333 351.833,30.6667 350.5,31C 316.991,36.1364 283.324,39.6364 249.5,41.5C 251.833,40.8333 254.167,40.1667 256.5,39.5C 288.806,37.1268 320.806,33.4601 352.5,28.5 Z"/></g>
<g><path style="opacity:1" fill="#424242" d="M 377.5,38.5 C 378.5,38.5 379.5,38.5 380.5,38.5C 372.408,40.3746 364.074,41.3746 355.5,41.5C 357.833,40.8333 360.167,40.1667 362.5,39.5C 367.463,38.746 372.463,38.4126 377.5,38.5 Z"/></g>
<g><path style="opacity:1" fill="#5d97d0" d="M 256.5,39.5 C 254.167,40.1667 251.833,40.8333 249.5,41.5C 248.833,41.5 248.167,41.5 247.5,41.5C 229.898,42.7298 212.565,45.0632 195.5,48.5C 189.974,48.8214 184.64,48.4881 179.5,47.5C 190.902,46.9476 202.235,45.781 213.5,44C 214.672,43.5814 215.672,42.9147 216.5,42C 229.772,40.1743 243.105,39.3409 256.5,39.5 Z"/></g>
<g><path style="opacity:1" fill="#8c8c8c" d="M 354.5,39.5 C 357.167,39.5 359.833,39.5 362.5,39.5C 360.167,40.1667 357.833,40.8333 355.5,41.5C 341.151,42.409 326.818,43.5756 312.5,45C 306.653,45.9052 300.986,47.0718 295.5,48.5C 291.731,48.244 288.064,48.5773 284.5,49.5C 279.167,49.5 273.833,49.5 268.5,49.5C 270.167,48.8333 271.833,48.1667 273.5,47.5C 287.341,47.642 301.007,46.142 314.5,43C 327.876,42.2554 341.21,41.0888 354.5,39.5 Z"/></g>
<g><path style="opacity:1" fill="#d4dfef" d="M 247.5,41.5 C 239.742,43.4686 231.742,44.802 223.5,45.5C 222.975,46.1924 222.308,46.6924 221.5,47C 212.87,48.1449 204.203,48.6449 195.5,48.5C 212.565,45.0632 229.898,42.7298 247.5,41.5 Z"/></g>
<g><path style="opacity:1" fill="#454545" d="M 426.5,37.5 C 428.61,38.4525 429.777,40.1192 430,42.5C 430.667,144.167 430.667,245.833 430,347.5C 429.802,349.382 429.302,351.048 428.5,352.5C 429.653,249.515 429.82,146.515 429,43.5C 428.345,41.3716 427.511,39.3716 426.5,37.5 Z"/></g>
<g><path style="opacity:1" fill="#2d2d2d" d="M 355.5,41.5 C 342.863,43.2225 330.197,45.0558 317.5,47C 310.201,48.0359 302.868,48.5359 295.5,48.5C 300.986,47.0718 306.653,45.9052 312.5,45C 326.818,43.5756 341.151,42.409 355.5,41.5 Z"/></g>
<g><path style="opacity:1" fill="#8f8f8f" d="M 423.5,34.5 C 425.167,35.1667 426.833,35.8333 428.5,36.5C 429.504,37.6828 430.338,39.0161 431,40.5C 431.667,143.5 431.667,246.5 431,349.5C 430.947,354.172 429.447,358.172 426.5,361.5C 427.578,358.598 428.244,355.598 428.5,352.5C 429.302,351.048 429.802,349.382 430,347.5C 430.667,245.833 430.667,144.167 430,42.5C 429.777,40.1192 428.61,38.4525 426.5,37.5C 425.508,37.6716 424.842,37.3382 424.5,36.5C 424.167,35.8333 423.833,35.1667 423.5,34.5 Z"/></g>
<g><path style="opacity:1" fill="#d5d5d5" d="M 273.5,47.5 C 271.833,48.1667 270.167,48.8333 268.5,49.5C 265.059,50.0965 261.725,50.7632 258.5,51.5C 251.833,51.5 245.167,51.5 238.5,51.5C 249.878,48.9686 261.545,47.6353 273.5,47.5 Z"/></g>
<g><path style="opacity:1" fill="#444444" d="M 268.5,49.5 C 273.833,49.5 279.167,49.5 284.5,49.5C 276.056,51.1367 267.389,51.8033 258.5,51.5C 261.725,50.7632 265.059,50.0965 268.5,49.5 Z"/></g>
<g><path style="opacity:1" fill="#cbcbcb" d="M 237.5,51.5 C 228.465,52.9703 219.465,54.6369 210.5,56.5C 206.958,56.1872 203.625,56.5206 200.5,57.5C 187.114,58.4897 173.78,59.9897 160.5,62C 157.929,62.9009 155.596,64.2342 153.5,66C 152.748,66.6708 152.414,67.5041 152.5,68.5C 151.833,68.8333 151.167,69.1667 150.5,69.5C 152.114,65.3327 155.114,62.4993 159.5,61C 166.848,59.6657 174.181,58.3323 181.5,57C 200.111,54.6915 218.778,52.8581 237.5,51.5 Z"/></g>
<g><path style="opacity:1" fill="#808080" d="M 237.5,51.5 C 237.833,51.5 238.167,51.5 238.5,51.5C 245.167,51.5 251.833,51.5 258.5,51.5C 254.005,52.4219 249.338,53.0886 244.5,53.5C 233.15,54.3354 221.817,55.3354 210.5,56.5C 219.465,54.6369 228.465,52.9703 237.5,51.5 Z"/></g>
<g><path style="opacity:1" fill="#424242" d="M 244.5,53.5 C 227.742,56.3854 210.742,58.3854 193.5,59.5C 195.833,58.8333 198.167,58.1667 200.5,57.5C 203.625,56.5206 206.958,56.1872 210.5,56.5C 221.817,55.3354 233.15,54.3354 244.5,53.5 Z"/></g>
<g><path style="opacity:1" fill="#646464" d="M 200.5,57.5 C 198.167,58.1667 195.833,58.8333 193.5,59.5C 182.934,60.1877 172.268,61.3544 161.5,63C 158.371,64.6303 155.371,66.4636 152.5,68.5C 152.414,67.5041 152.748,66.6708 153.5,66C 155.596,64.2342 157.929,62.9009 160.5,62C 173.78,59.9897 187.114,58.4897 200.5,57.5 Z"/></g>
<g><path style="opacity:0.984" fill="#ff0000" d="M 138.5,65.5 C 137.506,108.761 137.172,152.094 137.5,195.5C 127.868,186.369 118.368,177.036 109,167.5C 87.6061,211.337 84.7728,256.337 100.5,302.5C 100.5,303.167 100.5,303.833 100.5,304.5C 90.1893,304.718 80.1893,306.552 70.5,310C 66.1439,312.51 61.8106,315.01 57.5,317.5C 55.7446,318.072 54.0779,318.906 52.5,320C 48.4756,324.256 44.1422,328.089 39.5,331.5C 12.3214,257.121 18.9881,185.955 59.5,118C 42.1667,100.667 24.8333,83.3333 7.5,66C 51.1654,65.5 94.8321,65.3333 138.5,65.5 Z"/></g>
<g><path style="opacity:0.999" fill="#ff2d2d" d="M 138.5,65.5 C 138.833,65.5 139.167,65.5 139.5,65.5C 139.5,66.1667 139.5,66.8333 139.5,67.5C 138.833,110.167 138.167,152.833 137.5,195.5C 137.172,152.094 137.506,108.761 138.5,65.5 Z"/></g>
<g><path style="opacity:1" fill="#ff6868" d="M 139.5,67.5 C 139.832,110.67 139.499,153.67 138.5,196.5C 138.167,196.5 137.833,196.5 137.5,196.5C 137.5,196.167 137.5,195.833 137.5,195.5C 138.167,152.833 138.833,110.167 139.5,67.5 Z"/></g>
<g><path style="opacity:1" fill="#ffa2a2" d="M 139.5,65.5 C 141.176,66.1834 141.843,67.5168 141.5,69.5C 140.833,112.167 140.167,154.833 139.5,197.5C 138.833,197.5 138.5,197.167 138.5,196.5C 139.499,153.67 139.832,110.67 139.5,67.5C 139.5,66.8333 139.5,66.1667 139.5,65.5 Z"/></g>
<g><path style="opacity:1" fill="#ffd7d7" d="M 141.5,69.5 C 141.833,112.505 141.5,155.505 140.5,198.5C 139.893,198.376 139.56,198.043 139.5,197.5C 140.167,154.833 140.833,112.167 141.5,69.5 Z"/></g>
<g><path style="opacity:1" fill="#cfcfcf" d="M 149.5,69.5 C 149.5,154.833 149.5,240.167 149.5,325.5C 148.5,325.5 147.5,325.5 146.5,325.5C 143.968,324.404 141.635,323.071 139.5,321.5C 142.574,321.873 145.574,322.539 148.5,323.5C 148.167,238.665 148.501,153.998 149.5,69.5 Z"/></g>
<g><path style="opacity:1" fill="#999999" d="M 149.5,69.5 C 149.833,69.5 150.167,69.5 150.5,69.5C 150.5,155.167 150.5,240.833 150.5,326.5C 148.901,326.768 147.568,326.434 146.5,325.5C 147.5,325.5 148.5,325.5 149.5,325.5C 149.5,240.167 149.5,154.833 149.5,69.5 Z"/></g>
<g><path style="opacity:1" fill="#5d5d5d" d="M 152.5,68.5 C 151.839,154.627 151.172,240.627 150.5,326.5C 150.5,240.833 150.5,155.167 150.5,69.5C 151.167,69.1667 151.833,68.8333 152.5,68.5 Z"/></g>
<g><path style="opacity:1" fill="#d6e0ef" d="M 441.5,95.5 C 441.5,95.8333 441.5,96.1667 441.5,96.5C 440.501,182.332 440.167,268.332 440.5,354.5C 439.833,361.333 437.667,367.666 434,373.5C 429.625,378.387 425.125,383.22 420.5,388C 415.315,391.697 410.315,395.53 405.5,399.5C 403.435,399.517 401.435,399.85 399.5,400.5C 399.389,399.883 399.056,399.383 398.5,399C 419.698,391.137 433.198,376.304 439,354.5C 438.835,267.828 439.669,181.494 441.5,95.5 Z"/></g>
<g><path style="opacity:1" fill="#6d9ed2" d="M 441.5,96.5 C 442.167,96.5 442.5,96.8333 442.5,97.5C 441.833,183.167 441.167,268.833 440.5,354.5C 440.167,268.332 440.501,182.332 441.5,96.5 Z"/></g>
<g><path style="opacity:0.99" fill="#0282c9" d="M 442.5,97.5 C 487.711,156.697 502.878,223.03 488,296.5C 481.947,322.93 471.78,347.596 457.5,370.5C 473.319,386.819 489.319,402.986 505.5,419C 457.501,419.5 409.501,419.667 361.5,419.5C 361.5,416.833 361.5,414.167 361.5,411.5C 361.5,411.167 361.5,410.833 361.5,410.5C 376.701,411.949 391.034,409.115 404.5,402C 405.252,401.329 405.586,400.496 405.5,399.5C 410.315,395.53 415.315,391.697 420.5,388C 425.125,383.22 429.625,378.387 434,373.5C 437.667,367.666 439.833,361.333 440.5,354.5C 441.167,268.833 441.833,183.167 442.5,97.5 Z"/></g>
<g><path style="opacity:1" fill="#2a2a2a" d="M 405.5,133.5 C 406.665,188.332 406.832,243.332 406,298.5C 405.161,299.624 403.994,300.291 402.5,300.5C 400.97,300.36 399.97,299.693 399.5,298.5C 401.415,298.784 403.081,298.451 404.5,297.5C 405.499,243.003 405.832,188.336 405.5,133.5 Z"/></g>
<g><path style="opacity:1" fill="#d1d1d1" d="M 388.5,133.5 C 393.5,133.5 398.5,133.5 403.5,133.5C 403.5,187.833 403.5,242.167 403.5,296.5C 401.435,296.483 399.435,296.15 397.5,295.5C 375.172,284.534 352.172,283.7 328.5,293C 327.244,293.417 326.577,294.25 326.5,295.5C 324.315,295.704 322.315,296.37 320.5,297.5C 312.936,301.063 306.936,306.396 302.5,313.5C 300.467,315.163 298.634,317.163 297,319.5C 295.872,321.345 295.372,323.345 295.5,325.5C 294.422,328.402 293.756,331.402 293.5,334.5C 291.57,338.373 290.903,342.706 291.5,347.5C 289.152,328.87 295.485,313.703 310.5,302C 315.996,298.084 321.663,294.418 327.5,291C 352.734,282.749 377.401,283.916 401.5,294.5C 402.5,241.171 402.833,187.837 402.5,134.5C 396.162,134.767 389.829,135.1 383.5,135.5C 385.167,134.833 386.833,134.167 388.5,133.5 Z"/></g>
<g><path style="opacity:1" fill="#9c9c9c" d="M 388.5,133.5 C 393.64,132.512 398.974,132.179 404.5,132.5C 404.5,187.5 404.5,242.5 404.5,297.5C 402.473,297.662 400.473,297.495 398.5,297C 397.944,296.617 397.611,296.117 397.5,295.5C 399.435,296.15 401.435,296.483 403.5,296.5C 403.5,242.167 403.5,187.833 403.5,133.5C 398.5,133.5 393.5,133.5 388.5,133.5 Z"/></g>
<g><path style="opacity:1" fill="#5d5d5d" d="M 405.5,133.5 C 405.832,188.336 405.499,243.003 404.5,297.5C 404.5,242.5 404.5,187.5 404.5,132.5C 398.974,132.179 393.64,132.512 388.5,133.5C 386.833,134.167 385.167,134.833 383.5,135.5C 381.833,135.5 380.167,135.5 378.5,135.5C 368.812,135.96 359.145,136.626 349.5,137.5C 349.918,136.778 350.584,136.278 351.5,136C 368.815,133.79 386.148,132.123 403.5,131C 404.756,131.417 405.423,132.25 405.5,133.5 Z"/></g>
<g><path style="opacity:1" fill="#9c9c9c" d="M 378.5,135.5 C 331.158,141.54 283.491,146.873 235.5,151.5C 244.484,149.74 253.484,148.074 262.5,146.5C 264.167,146.5 265.833,146.5 267.5,146.5C 278.36,145.643 289.027,144.309 299.5,142.5C 313.651,141.329 327.651,139.662 341.5,137.5C 344.167,137.5 346.833,137.5 349.5,137.5C 359.145,136.626 368.812,135.96 378.5,135.5 Z"/></g>
<g><path style="opacity:1" fill="#2f2f2f" d="M 341.5,137.5 C 327.651,139.662 313.651,141.329 299.5,142.5C 313.2,139.866 327.2,138.199 341.5,137.5 Z"/></g>
<g><path style="opacity:1" fill="#4a4a4a" d="M 299.5,142.5 C 289.027,144.309 278.36,145.643 267.5,146.5C 277.895,144.084 288.562,142.75 299.5,142.5 Z"/></g>
<g><path style="opacity:1" fill="#9d9d9d" d="M 231.5,151.5 C 219.409,153.958 207.076,155.624 194.5,156.5C 188.828,156.76 183.161,157.093 177.5,157.5C 181.591,156.105 185.924,155.272 190.5,155C 204.196,154.04 217.863,152.873 231.5,151.5 Z"/></g>
<g><path style="opacity:1" fill="#545454" d="M 262.5,146.5 C 253.484,148.074 244.484,149.74 235.5,151.5C 234.167,151.5 232.833,151.5 231.5,151.5C 217.863,152.873 204.196,154.04 190.5,155C 185.924,155.272 181.591,156.105 177.5,157.5C 176.667,231.999 176.167,306.666 176,381.5C 174.768,386.452 172.935,391.118 170.5,395.5C 166.617,400.094 162.617,404.594 158.5,409C 154.362,411.315 150.695,414.148 147.5,417.5C 146.833,417.5 146.167,417.5 145.5,417.5C 148.982,413.871 152.982,410.704 157.5,408C 161.679,403.819 165.512,399.319 169,394.5C 172.37,388.655 174.37,382.322 175,375.5C 175.333,302.5 175.667,229.5 176,156.5C 204.625,151.817 233.458,148.484 262.5,146.5 Z"/></g>
<g><path style="opacity:1" fill="#bcbcbc" d="M 194.5,156.5 C 189.402,157.957 184.069,158.624 178.5,158.5C 178.667,232.167 178.5,305.834 178,379.5C 176.141,385.672 173.974,391.672 171.5,397.5C 168.435,398.936 166.269,401.269 165,404.5C 160.363,408.56 155.863,412.726 151.5,417C 150.207,417.49 148.873,417.657 147.5,417.5C 150.695,414.148 154.362,411.315 158.5,409C 162.617,404.594 166.617,400.094 170.5,395.5C 172.935,391.118 174.768,386.452 176,381.5C 176.167,306.666 176.667,231.999 177.5,157.5C 183.161,157.093 188.828,156.76 194.5,156.5 Z"/></g>
<g><path style="opacity:1" fill="#7c7c7c" d="M 397.5,295.5 C 397.611,296.117 397.944,296.617 398.5,297C 400.473,297.495 402.473,297.662 404.5,297.5C 403.081,298.451 401.415,298.784 399.5,298.5C 375.681,286.459 351.347,285.459 326.5,295.5C 326.577,294.25 327.244,293.417 328.5,293C 352.172,283.7 375.172,284.534 397.5,295.5 Z"/></g>
<g><path style="opacity:1" fill="#7a7a7a" d="M 320.5,297.5 C 314.228,302.433 308.228,307.767 302.5,313.5C 306.936,306.396 312.936,301.063 320.5,297.5 Z"/></g>
<g><path style="opacity:1" fill="#ff9896" d="M 100.5,304.5 C 94.0264,305.969 87.3597,307.136 80.5,308C 72.2731,312.459 63.9398,316.626 55.5,320.5C 56.1667,319.5 56.8333,318.5 57.5,317.5C 61.8106,315.01 66.1439,312.51 70.5,310C 80.1893,306.552 90.1893,304.718 100.5,304.5 Z"/></g>
<g><path style="opacity:1" fill="#848484" d="M 85.5,318.5 C 84.8333,319.167 84.1667,319.833 83.5,320.5C 77.928,321.956 72.5947,323.956 67.5,326.5C 69.9131,324.113 72.5798,321.946 75.5,320C 78.8273,319.39 82.1606,318.89 85.5,318.5 Z"/></g>
<g><path style="opacity:1" fill="#ff6c6a" d="M 57.5,317.5 C 56.8333,318.5 56.1667,319.5 55.5,320.5C 50.2059,324.127 45.2059,328.127 40.5,332.5C 39.8333,332.5 39.5,332.167 39.5,331.5C 44.1422,328.089 48.4756,324.256 52.5,320C 54.0779,318.906 55.7446,318.072 57.5,317.5 Z"/></g>
<g><path style="opacity:1" fill="#737373" d="M 302.5,313.5 C 300.156,317.577 297.823,321.577 295.5,325.5C 295.372,323.345 295.872,321.345 297,319.5C 298.634,317.163 300.467,315.163 302.5,313.5 Z"/></g>
<g><path style="opacity:1" fill="#535353" d="M 131.5,320.5 C 134.167,320.833 136.833,321.167 139.5,321.5C 141.635,323.071 143.968,324.404 146.5,325.5C 147.568,326.434 148.901,326.768 150.5,326.5C 149.054,327.613 147.387,327.78 145.5,327C 142.164,324.835 138.497,323.502 134.5,323C 133.429,322.148 132.429,321.315 131.5,320.5 Z"/></g>
<g><path style="opacity:1" fill="#ffc2c2" d="M 55.5,320.5 C 51.8671,324.327 48.2005,328.16 44.5,332C 43.0544,333.298 41.7211,333.465 40.5,332.5C 45.2059,328.127 50.2059,324.127 55.5,320.5 Z"/></g>
<g><path style="opacity:1" fill="#bfbfbf" d="M 139.5,321.5 C 136.833,321.167 134.167,320.833 131.5,320.5C 127.756,318.868 123.756,317.701 119.5,317C 108.096,316.155 96.7629,316.655 85.5,318.5C 82.1606,318.89 78.8273,319.39 75.5,320C 72.5798,321.946 69.9131,324.113 67.5,326.5C 65.5168,327.471 63.5168,328.471 61.5,329.5C 56.3134,332.173 51.8134,335.84 48,340.5C 46.0637,344.919 43.5637,348.919 40.5,352.5C 41.8144,348.261 43.6477,344.261 46,340.5C 54.1088,331.378 63.6088,324.212 74.5,319C 95.5889,312.878 116.589,313.044 137.5,319.5C 138.713,319.747 139.38,320.414 139.5,321.5 Z"/></g>
<g><path style="opacity:1" fill="#3d3d3d" d="M 131.5,320.5 C 123.453,318.708 115.286,317.708 107,317.5C 99.1339,318.176 91.3006,319.176 83.5,320.5C 84.1667,319.833 84.8333,319.167 85.5,318.5C 96.7629,316.655 108.096,316.155 119.5,317C 123.756,317.701 127.756,318.868 131.5,320.5 Z"/></g>
<g><path style="opacity:1" fill="#646464" d="M 61.5,329.5 C 57.2288,333.269 53.0621,337.269 49,341.5C 48.6667,342.833 48.3333,344.167 48,345.5C 45.4727,348.403 43.3061,351.57 41.5,355C 40.8013,358.709 39.8013,362.209 38.5,365.5C 38.271,360.99 38.9376,356.657 40.5,352.5C 43.5637,348.919 46.0637,344.919 48,340.5C 51.8134,335.84 56.3134,332.173 61.5,329.5 Z"/></g>
<g><path style="opacity:1" fill="#9f9f9f" d="M 426.5,362.5 C 425.762,366.643 423.929,370.31 421,373.5C 416.287,378.715 411.12,383.382 405.5,387.5C 402.903,389.594 399.903,390.927 396.5,391.5C 402.156,387.997 407.49,383.997 412.5,379.5C 414.994,377.201 417.494,374.867 420,372.5C 421.942,368.931 424.108,365.598 426.5,362.5 Z"/></g>
<g><path style="opacity:1" fill="#787878" d="M 293.5,334.5 C 292.971,343.315 293.804,351.981 296,360.5C 301.2,369.536 307.7,377.536 315.5,384.5C 313.712,384.785 312.045,384.452 310.5,383.5C 306.481,379.315 302.647,374.982 299,370.5C 296.152,366.138 293.819,361.472 292,356.5C 291.502,353.518 291.335,350.518 291.5,347.5C 290.903,342.706 291.57,338.373 293.5,334.5 Z"/></g>
<g><path style="opacity:1" fill="#6b6b6b" d="M 315.5,384.5 C 316.873,384.343 318.207,384.51 319.5,385C 321.542,387.337 323.876,389.17 326.5,390.5C 321.739,390.434 318.072,388.434 315.5,384.5 Z"/></g>
<g><path style="opacity:1" fill="#717171" d="M 38.5,365.5 C 37.7865,379.666 42.1199,391.999 51.5,402.5C 55.8795,406.55 60.2129,410.55 64.5,414.5C 63.1266,414.657 61.7932,414.49 60.5,414C 50.313,406.155 42.813,396.322 38,384.5C 37.18,377.986 37.3467,371.653 38.5,365.5 Z"/></g>
<g><path style="opacity:0.979" fill="#ff0100" d="M 182.5,395.5 C 183.5,395.5 184.5,395.5 185.5,395.5C 216.056,410.814 248.389,415.981 282.5,411C 294.661,409.212 306.328,406.045 317.5,401.5C 318.5,401.5 319.5,401.5 320.5,401.5C 324.784,402.815 329.117,404.149 333.5,405.5C 333.263,406.791 333.596,407.791 334.5,408.5C 334.833,428.178 334.5,447.845 333.5,467.5C 267.374,488.467 203.707,482.634 142.5,450C 135.759,446.307 129.426,442.14 123.5,437.5C 129.555,436.703 135.221,434.703 140.5,431.5C 143.947,431.186 147.28,430.352 150.5,429C 152.637,426.429 155.303,424.596 158.5,423.5C 169.81,416.868 177.81,407.534 182.5,395.5 Z"/></g>
<g><path style="opacity:1" fill="#6d6d6d" d="M 412.5,379.5 C 407.49,383.997 402.156,387.997 396.5,391.5C 389.733,393.385 383.067,395.551 376.5,398C 368.323,398.823 360.323,398.656 352.5,397.5C 362.065,397.937 371.398,397.27 380.5,395.5C 391.805,391.549 402.472,386.216 412.5,379.5 Z"/></g>
<g><path style="opacity:1" fill="#d4d4d4" d="M 405.5,387.5 C 404.71,388.794 403.71,389.961 402.5,391C 386.473,398.951 369.473,402.284 351.5,401C 343.961,399.546 336.961,397.046 330.5,393.5C 331.833,393.5 333.167,393.5 334.5,393.5C 340.037,396.319 346.037,397.652 352.5,397.5C 360.323,398.656 368.323,398.823 376.5,398C 383.067,395.551 389.733,393.385 396.5,391.5C 399.903,390.927 402.903,389.594 405.5,387.5 Z"/></g>
<g><path style="opacity:1" fill="#3f3f3f" d="M 334.5,393.5 C 338.659,394.742 342.993,395.575 347.5,396C 358.514,396.619 369.514,396.453 380.5,395.5C 371.398,397.27 362.065,397.937 352.5,397.5C 346.037,397.652 340.037,396.319 334.5,393.5 Z"/></g>
<g><path style="opacity:1" fill="#ffbcbc" d="M 320.5,401.5 C 321.946,400.387 323.613,400.22 325.5,401C 328.503,402.21 331.17,403.71 333.5,405.5C 329.117,404.149 324.784,402.815 320.5,401.5 Z"/></g>
<g><path style="opacity:1" fill="#5694cf" d="M 405.5,399.5 C 405.586,400.496 405.252,401.329 404.5,402C 391.034,409.115 376.701,411.949 361.5,410.5C 369.152,408.667 377.152,407.167 385.5,406C 390.622,404.925 395.288,403.092 399.5,400.5C 401.435,399.85 403.435,399.517 405.5,399.5 Z"/></g>
<g><path style="opacity:1" fill="#ffb4b3" d="M 178.5,401.5 C 172.834,409.829 166.167,417.162 158.5,423.5C 155.303,424.596 152.637,426.429 150.5,429C 147.28,430.352 143.947,431.186 140.5,431.5C 146.142,429.509 151.475,426.676 156.5,423C 164.178,416.988 170.845,409.988 176.5,402C 177.094,401.536 177.761,401.369 178.5,401.5 Z"/></g>
<g><path style="opacity:1" fill="#ff706e" d="M 182.5,395.5 C 177.81,407.534 169.81,416.868 158.5,423.5C 166.167,417.162 172.834,409.829 178.5,401.5C 178.845,398.802 180.178,396.802 182.5,395.5 Z"/></g>
<g><path style="opacity:1" fill="#b0b0b0" d="M 64.5,414.5 C 67.2347,415.358 69.5681,416.858 71.5,419C 75.0523,419.878 78.3856,421.044 81.5,422.5C 82.5,423.167 83.5,423.833 84.5,424.5C 79.6377,423.128 74.6377,421.962 69.5,421C 67.4726,419.112 65.806,416.946 64.5,414.5 Z"/></g>
<g><path style="opacity:1" fill="#555555" d="M 143.5,417.5 C 143.167,418.167 142.833,418.833 142.5,419.5C 133.698,423.808 124.365,425.808 114.5,425.5C 124.174,423.182 133.84,420.515 143.5,417.5 Z"/></g>
<g><path style="opacity:1" fill="#b6b6b6" d="M 142.5,419.5 C 141.251,421.136 139.584,422.303 137.5,423C 124.344,427.5 111.011,428.667 97.5,426.5C 103.358,426.822 109.025,426.489 114.5,425.5C 124.365,425.808 133.698,423.808 142.5,419.5 Z"/></g>
<g><path style="opacity:1" fill="#636363" d="M 81.5,422.5 C 92.3195,425.112 103.319,426.112 114.5,425.5C 109.025,426.489 103.358,426.822 97.5,426.5C 92.9903,426.729 88.6569,426.062 84.5,424.5C 83.5,423.833 82.5,423.167 81.5,422.5 Z"/></g>
<g><path style="opacity:1" fill="#ff9695" d="M 140.5,431.5 C 135.221,434.703 129.555,436.703 123.5,437.5C 123.167,437.5 122.833,437.5 122.5,437.5C 122.62,436.414 123.287,435.747 124.5,435.5C 129.919,434.357 135.252,433.024 140.5,431.5 Z"/></g>
</svg>
